# xmcd CD database file
#
# Track frame offsets:
#	150
#	15589
#	31591
#	44698
#	57556
#	71497
#	85878
#	132738
#	144802
#	157632
#	171508
#	183504
#	195964
#	208165
#
# Disc length: 2949 seconds
#
# Revision: 0
# Processed by: cddbd v1.4PL0 Copyright (c) Steve Scherf et al.
# Submitted via: CDex 1.50
#
DISCID=bf0b830e
DTITLE=Various Artist - Jazz Cafe
DYEAR=2001
DGENRE=Jazz
TTITLE0=Tony Bennett - The Way You Look Tonight
TTITLE1=Louis Armstrong - On The Sunny Side Of The Street
TTITLE2=Billie Holiday - A Fine Romance
TTITLE3=Sarah Vaughan - Can't Get Out Of This Mood
TTITLE4=Duke Ellington - Mood Indigo
TTITLE5=Benny Goodman - Taking A Chance On Love
TTITLE6=Dave Brubeck - Tangerine
TTITLE7=Chet Baker - I'm Thru With Love
TTITLE8=Doris Day - At The Cafe Rendezvous
TTITLE9=Benny Goodman - If I Had You
TTITLE10=Billie Holiday - Let's Call The Whole Thing Off
TTITLE11=Andy Williams - Our Love Is Here To Stay
TTITLE12=Doris Day - It Had To Be You
TTITLE13=Mel Torme - I've Got You Under My Skin
EXTD=YEAR: 2001
EXTT0=
EXTT1=
EXTT2=
EXTT3=
EXTT4=
EXTT5=
EXTT6=
EXTT7=
EXTT8=
EXTT9=
EXTT10=
EXTT11=
EXTT12=
EXTT13=
PLAYORDER=
